HIERARCHY
ROOT Hips
{
	OFFSET 0.000000 0.000000 0.000000
	CHANNELS 6 Xposition Yposition Zposition Zrotation Yrotation Xrotation 
	JOINT LHipJoint
	{
		OFFSET 0.000000 0.000000 0.000000
		CHANNELS 3 Zrotation Yrotation Xrotation
		JOINT LeftUpLeg
		{
			OFFSET 1.363060 -1.794630 0.839290
			CHANNELS 3 Zrotation Yrotation Xrotation
			JOINT LeftLeg
			{
				OFFSET 2.448110 -6.726130 0.000000
				CHANNELS 3 Zrotation Yrotation Xrotation
				JOINT LeftFoot
				{
					OFFSET 2.562200 -7.039590 0.000000
					CHANNELS 3 Zrotation Yrotation Xrotation
					JOINT LeftToeBase
					{
						OFFSET 0.157640 -0.433110 2.322550
						CHANNELS 3 Zrotation Yrotation Xrotation
						End Site
						{
							OFFSET 0.000000 0.000000 0.000000
						}
					}
				}
			}
		}
	}
	JOINT RHipJoint
	{
		OFFSET 0.000000 0.000000 0.000000
		CHANNELS 3 Zrotation Yrotation Xrotation
		JOINT RightUpLeg
		{
			OFFSET -1.305520 -1.794630 0.839290
			CHANNELS 3 Zrotation Yrotation Xrotation
			JOINT RightLeg
			{
				OFFSET -2.542530 -6.985550 0.000000
				CHANNELS 3 Zrotation Yrotation Xrotation
				JOINT RightFoot
				{
					OFFSET -2.568260 -7.056230 0.000000
					CHANNELS 3 Zrotation Yrotation Xrotation
					JOINT RightToeBase
					{
						OFFSET -0.164730 -0.452590 2.363150
						CHANNELS 3 Zrotation Yrotation Xrotation
						End Site
						{
							OFFSET 0.000000 0.000000 0.000000
						}
					}
				}
			}
		}
	}
	JOINT LowerBack
	{
		OFFSET 0.000000 0.000000 0.000000
		CHANNELS 3 Zrotation Yrotation Xrotation
		JOINT Spine
		{
			OFFSET 0.028270 2.035590 -0.193380
			CHANNELS 3 Zrotation Yrotation Xrotation
			JOINT Spine1
			{
				OFFSET 0.056720 2.048850 -0.042750
				CHANNELS 3 Zrotation Yrotation Xrotation
				JOINT Neck
				{
					OFFSET 0.000000 0.000000 0.000000
					CHANNELS 3 Zrotation Yrotation Xrotation
					JOINT Neck1
					{
						OFFSET -0.054170 1.746240 0.172020
						CHANNELS 3 Zrotation Yrotation Xrotation
						JOINT Head
						{
							OFFSET 0.104070 1.761360 -0.123970
							CHANNELS 3 Zrotation Yrotation Xrotation
							End Site
							{
								OFFSET 0.000000 0.000000 0.000000
							}
						}
					}
				}
				JOINT LeftShoulder
				{
					OFFSET 0.000000 0.000000 0.000000
					CHANNELS 3 Zrotation Yrotation Xrotation
					JOINT LeftArm
					{
						OFFSET 3.362410 1.200890 -0.311210
						CHANNELS 3 Zrotation Yrotation Xrotation
						JOINT LeftForeArm
						{
							OFFSET 4.983000 -0.000000 -0.000000
							CHANNELS 3 Zrotation Yrotation Xrotation
							JOINT LeftHand
							{
								OFFSET 3.483560 -0.000000 -0.000000
								CHANNELS 3 Zrotation Yrotation Xrotation
								JOINT LeftFingerBase
								{
									OFFSET 0.000000 0.000000 0.000000
									CHANNELS 3 Zrotation Yrotation Xrotation
									JOINT LeftHandIndex1
									{
										OFFSET 0.715260 -0.000000 -0.000000
										CHANNELS 3 Zrotation Yrotation Xrotation
										End Site
										{
											OFFSET 0.000000 0.000000 0.000000
										}
									}
								}
								JOINT LThumb
								{
									OFFSET 0.000000 0.000000 0.000000
									CHANNELS 3 Zrotation Yrotation Xrotation
									End Site
									{
										OFFSET 0.000000 0.000000 0.000000
									}
								}
							}
						}
					}
				}
				JOINT RightShoulder
				{
					OFFSET 0.000000 0.000000 0.000000
					CHANNELS 3 Zrotation Yrotation Xrotation
					JOINT RightArm
					{
						OFFSET -3.136600 1.374050 -0.404650
						CHANNELS 3 Zrotation Yrotation Xrotation
						JOINT RightForeArm
						{
							OFFSET -5.241900 -0.000000 -0.000000
							CHANNELS 3 Zrotation Yrotation Xrotation
							JOINT RightHand
							{
								OFFSET -3.444170 -0.000000 -0.000000
								CHANNELS 3 Zrotation Yrotation Xrotation
								JOINT RightFingerBase
								{
									OFFSET 0.000000 0.000000 0.000000
									CHANNELS 3 Zrotation Yrotation Xrotation
									JOINT RightHandIndex1
									{
										OFFSET -0.622530 -0.000000 -0.000000
										CHANNELS 3 Zrotation Yrotation Xrotation
										End Site
										{
											OFFSET 0.000000 0.000000 0.000000
										}
									}
								}
								JOINT RThumb
								{
									OFFSET 0.000000 0.000000 0.000000
									CHANNELS 3 Zrotation Yrotation Xrotation
									End Site
									{
										OFFSET 0.000000 0.000000 0.000000
									}
								}
							}
						}
					}
				}
			}
		}
	}
}
MOTION
Frames: 7
Frame Time: 0.008333
33.944895 15.375075 14.141081 172.560108 -49.651599 -160.290283 5.093996 -12.818547 -14.707553 -3.194326 0.758016 -21.258910 4.047749 22.215350 61.701387 6.065586 11.592290 7.414106 -3.897248 11.624324 -12.094903 -0.583898 25.335315 -19.590216 -5.928882 -29.941174 13.526712 -6.033280 -29.842707 21.450352 -8.531959 -9.525898 -12.204855 -7.525812 -3.748351 -30.207130 -6.424749 -5.276925 35.882919 2.334529 0.852110 -9.065574 2.583817 1.561081 -6.881376 -5.366637 0.913739 -8.538951 -1.030414 0.457272 7.477891 4.594716 -11.850610 14.730634 19.581612 -0.607257 -1.510193 -82.282889 10.683412 4.406447 158.165880 -62.894755 -168.509570 -4.345836 25.083086 -4.520671 -0.000001 -0.000002 -0.000000 0.000000 0.000000 0.000000 0.000000 0.000000 0.000000 -18.832776 12.099891 0.964459 81.539827 30.871152 14.179561 -50.531540 83.482803 -32.492042 4.353484 1.929340 0.412981 0.000000 0.000002 -0.000000 -0.000000 0.000000 0.000000 -0.000000 -0.000000 0.000000 
34.044144 15.319219 14.070420 172.883554 -49.130660 -160.784847 4.883753 -12.749092 -14.690690 -2.614165 0.361674 -22.759040 5.901719 22.802136 64.757905 6.832516 12.146422 6.760775 -3.934271 11.960919 -11.431012 -0.826399 25.220899 -19.596664 -6.346214 -34.201856 12.846330 -7.502420 -28.715800 21.106221 -8.962274 -5.889470 -12.897384 -0.180870 -14.397225 -28.930473 -6.631355 -5.468036 36.075431 2.282812 1.120887 -8.959639 1.006165 1.591570 -5.861743 -3.908303 0.956847 -9.409210 -1.038407 0.228680 7.189920 4.434563 -11.801872 13.610472 21.036400 -0.003910 -1.165135 -82.272643 9.950300 3.245589 159.267541 -62.783691 -169.679295 -1.808758 24.682747 -3.912018 -0.000001 -0.000002 -0.000000 -0.000000 0.000000 -0.000000 0.000000 0.000000 0.000000 -17.453962 11.431885 0.895022 81.045782 32.777313 13.668371 -43.539023 83.935056 -26.728833 4.326726 2.034253 0.430916 0.000000 0.000002 -0.000000 -0.000000 -0.000000 0.000000 -0.000000 0.000000 0.000000 
34.142192 15.260961 14.001156 172.781356 -48.849383 -161.126019 4.926925 -12.841010 -14.847169 -2.719420 -0.491567 -23.986300 7.661538 23.646040 67.510622 7.529712 11.277820 6.269002 -3.713564 12.300225 -8.600983 -0.869097 25.409695 -19.680261 -6.648028 -34.472315 13.407834 -6.926358 -28.878267 21.293582 -10.810434 -6.024468 -13.885100 -2.271250 -11.531824 -29.652302 -6.908299 -5.591023 36.373453 2.324990 0.895869 -8.812171 1.518408 1.532069 -5.648727 -4.298050 0.923223 -9.300189 -0.905328 0.252814 6.852592 3.851988 -11.587137 13.385711 20.813573 0.353014 -0.745842 -82.795224 9.641418 1.403833 160.678779 -63.391729 -172.226046 0.115302 24.712510 -3.514631 -0.000001 -0.000002 -0.000000 -0.000000 0.000000 0.000000 -0.000000 -0.000000 -0.000000 -18.036098 11.735378 0.954441 80.584487 34.205790 13.568583 -40.830891 83.964987 -24.928997 4.231595 1.545453 0.340543 0.000000 0.000002 -0.000000 -0.000000 -0.000000 0.000000 0.000000 0.000000 -0.000000 
34.223273 15.215165 13.935751 172.930460 -48.403946 -161.550980 4.985611 -12.816928 -14.957039 -2.999177 -0.954938 -25.465079 7.821194 23.436959 70.151577 8.309045 11.593906 5.542408 -2.959555 10.586612 -6.266645 -0.684422 25.690277 -19.419959 -7.223097 -35.878226 13.030301 -6.945748 -28.367412 22.213522 -11.588205 -5.335482 -14.822310 -3.109509 -10.493896 -30.225351 -7.086197 -5.792747 36.581899 2.381793 0.722752 -8.700748 1.865864 1.339161 -4.759188 -4.528436 0.915750 -9.889084 -0.790072 0.272348 6.491550 3.435731 -11.475724 12.893967 20.495925 1.481924 -0.367521 -83.347941 8.642583 -0.080971 161.726972 -64.147930 -172.879560 1.153627 23.639337 -3.151177 -0.000001 -0.000002 -0.000000 0.000000 0.000000 0.000000 -0.000000 0.000000 0.000000 -18.398594 11.922200 0.805891 80.031488 36.175520 13.243373 -34.910818 84.247373 -19.922584 4.230117 1.540243 0.339551 0.000000 0.000002 -0.000000 0.000000 0.000000 0.000000 0.000000 -0.000000 -0.000000 
34.296396 15.179880 13.869595 173.068991 -48.004834 -161.845689 4.789491 -12.791555 -15.121869 -2.990968 -1.538267 -26.894004 8.934398 23.581932 72.680465 8.317413 11.151083 4.937771 -3.175037 10.260099 -9.436705 -0.294327 25.670696 -18.938073 -7.942237 -37.976594 12.037033 -7.789605 -28.099842 23.252747 -11.074763 -3.089029 -15.682093 -2.364729 -11.947921 -31.229754 -7.102018 -5.913164 36.727420 2.401607 0.701775 -8.637462 2.169522 1.264105 -4.282415 -4.808383 0.916813 -10.112972 -0.735330 0.313597 6.175436 3.134488 -11.276125 11.911304 19.987270 2.070487 0.153177 -83.851847 7.662847 -1.208338 162.269157 -64.815526 -173.723285 2.128701 23.090017 -2.888154 -0.000001 -0.000002 -0.000000 0.000000 0.000000 0.000000 0.000000 0.000000 -0.000000 -18.549278 11.882535 0.935954 79.382034 37.876549 13.059340 -29.755742 84.326594 -14.835499 3.362089 2.146383 0.417559 0.000000 0.000002 -0.000000 0.000000 -0.000000 0.000000 0.000000 0.000000 -0.000000 
34.355255 15.142943 13.793904 173.172594 -47.539639 -161.992221 4.589079 -12.709572 -15.173450 -3.112014 -1.887440 -28.607552 10.120077 23.435574 75.230223 7.703591 10.819985 4.160279 -3.106720 9.632188 -10.818212 0.172577 25.515871 -18.492868 -8.231308 -38.035653 11.477765 -7.281263 -27.616346 24.057892 -11.887203 -3.432360 -16.765004 -4.020158 -9.726641 -31.719077 -7.072459 -5.955316 36.603651 2.553404 -0.109719 -8.594108 5.149831 0.745540 -4.541464 -7.577756 0.763020 -9.539213 -0.596271 0.727473 5.729829 2.277267 -10.739808 12.818861 16.901639 3.240231 0.662983 -84.464985 8.064223 -2.575132 162.868934 -65.485547 -175.567835 3.766406 22.833979 -2.544468 -0.000001 -0.000002 -0.000000 0.000000 -0.000000 0.000000 0.000000 -0.000000 -0.000000 -21.156680 13.619568 0.983790 78.687969 38.993000 13.375302 -29.066882 84.064975 -13.799155 2.154572 2.319853 0.403469 0.000000 0.000002 -0.000000 0.000000 0.000000 0.000000 -0.000000 -0.000000 0.000000 
34.395646 15.122523 13.716652 173.516408 -46.975939 -162.372715 4.573298 -12.511932 -15.185272 -3.475200 -2.092487 -29.978553 10.001014 23.475039 76.778162 8.132702 9.935398 4.056622 -2.395768 7.861558 -8.989135 0.712782 25.293617 -18.257333 -7.999128 -37.274457 10.925030 -7.973804 -28.440067 24.934337 -11.654155 -2.739773 -16.968188 -3.713686 -10.405011 -32.335810 -7.085070 -6.047083 36.633077 2.550487 0.101817 -8.517786 4.925106 0.693933 -3.576918 -7.333447 0.804368 -10.257773 -0.607853 0.728247 5.497548 2.000001 -10.711409 13.085545 16.860504 4.318040 1.373088 -85.158933 5.730147 -3.216586 163.284498 -66.851815 -175.031505 5.238351 21.347402 -2.119498 -0.000001 -0.000002 -0.000000 -0.000000 -0.000000 0.000000 0.000000 -0.000000 -0.000000 -20.844519 13.345295 0.969181 78.051961 40.860469 13.258877 -24.153820 83.815388 -9.474985 1.980638 2.686645 0.455213 0.000000 0.000002 -0.000000 -0.000000 0.000000 0.000000 -0.000000 0.000000 -0.000000 
